<svg width="240" height="240" viewBox="0 0 240 240" fill="none" xmlns="http://www.w3.org/2000/svg">
<path d="M119.489 238.264C140.496 237.781 159.7 228.423 178.18 218.453C197.071 208.261 219.41 199.207 228.148 179.644C236.828 160.212 225.801 138.233 223.456 117.09C221.374 98.3265 221.36 79.8647 215.104 62.0467C207.849 41.3845 203.7 15.3931 184.211 5.31337C164.604 -4.82689 141.333 9.33399 119.489 12.5961C100.9 15.3723 82.5798 16.2888 65.0701 23.1059C45.3211 30.7947 22.4389 36.8247 11.2065 54.7538C-0.0615162 72.7399 7.3208 95.9134 6.18993 117.09C4.99071 139.547 -5.87555 163.33 4.33771 183.381C14.5806 203.49 38.8067 211.461 59.2144 221.188C78.3857 230.325 98.246 238.752 119.489 238.264Z" fill="#8676FF"/>
<path d="M77.0932 120.001C96.0953 120.001 111.427 104.265 111.427 84.8654C111.427 65.4435 96.1025 49.7148 77.0932 49.7148C58.1799 49.7148 42.8555 65.4435 42.8555 84.8654C42.8555 104.257 58.1802 120.001 77.0932 120.001Z" fill="#DBDFF1"/>
<path d="M105.538 125.144H50.4675C40.6366 125.144 32.5703 134.176 32.5703 145.239V200.508C32.5703 201.116 32.8594 201.672 32.9188 202.286H123.101C123.138 201.672 123.427 201.116 123.427 200.508V145.239C123.427 134.176 115.391 125.144 105.538 125.144Z" fill="#DBDFF1"/>
<path d="M205.711 86.2845C205.674 66.0011 187.168 49.6628 164.513 49.715C141.754 49.7523 123.396 66.2251 123.426 86.456C123.463 102.436 134.984 115.956 150.981 120.93L151.197 190.952L164.55 200.572L178.432 190.87L178.409 181.579H171.997L171.968 172.474H178.395L178.335 162.406H171.953L171.923 153.316H178.335L178.305 144.219H171.901L171.878 135.121L178.313 135.113L178.208 120.885C194.228 115.852 205.711 102.28 205.711 86.2845ZM164.535 65.4943C169.637 65.4943 173.822 69.6776 173.822 74.7785C173.859 79.9464 169.674 84.1149 164.558 84.1149C159.412 84.1149 155.256 80.0058 155.256 74.8234C155.226 69.7001 159.389 65.5091 164.535 65.4943Z" fill="#DBDFF1"/>
</svg>
